<svg width="173" height="38" viewBox="0 0 173 38" fill="none" xmlns="http://www.w3.org/2000/svg">
<path d="M9.808 30.416C8.60267 30.416 7.44 30.2293 6.32 29.856C5.2 29.472 4.21867 28.928 3.376 28.224C2.544 27.52 1.952 26.6827 1.6 25.712L4.112 24.768C4.32533 25.3653 4.72 25.888 5.296 26.336C5.88267 26.7733 6.57067 27.1147 7.36 27.36C8.14933 27.6053 8.96533 27.728 9.808 27.728C10.768 27.728 11.6587 27.5733 12.48 27.264C13.312 26.944 13.984 26.5013 14.496 25.936C15.008 25.3707 15.264 24.7093 15.264 23.952C15.264 23.1733 14.9973 22.5387 14.464 22.048C13.9307 21.5467 13.248 21.152 12.416 20.864C11.584 20.5653 10.7147 20.336 9.808 20.176C8.26133 19.92 6.87467 19.5573 5.648 19.088C4.432 18.608 3.46667 17.9413 2.752 17.088C2.048 16.2347 1.696 15.1093 1.696 13.712C1.696 12.4107 2.06933 11.2747 2.816 10.304C3.57333 9.33333 4.57067 8.58133 5.808 8.048C7.04533 7.51467 8.37867 7.248 9.808 7.248C10.992 7.248 12.1387 7.43467 13.248 7.808C14.368 8.17067 15.3547 8.704 16.208 9.408C17.0613 10.112 17.6747 10.9707 18.048 11.984L15.504 12.912C15.2907 12.304 14.8907 11.7813 14.304 11.344C13.728 10.896 13.0453 10.5547 12.256 10.32C11.4773 10.0747 10.6613 9.952 9.808 9.952C8.85867 9.94133 7.97333 10.096 7.152 10.416C6.33067 10.736 5.664 11.1787 5.152 11.744C4.64 12.3093 4.384 12.9653 4.384 13.712C4.384 14.608 4.61867 15.296 5.088 15.776C5.568 16.2453 6.21867 16.5973 7.04 16.832C7.86133 17.0667 8.784 17.2747 9.808 17.456C11.2587 17.7013 12.6027 18.0907 13.84 18.624C15.0773 19.1467 16.0693 19.8453 16.816 20.72C17.5733 21.5947 17.952 22.672 17.952 23.952C17.952 25.2533 17.5733 26.3893 16.816 27.36C16.0693 28.3307 15.0773 29.0827 13.84 29.616C12.6027 30.1493 11.2587 30.416 9.808 30.416Z" fill="#6A70FF"/>
<path d="M28.6163 30.416C27.1443 30.416 25.8003 30.0373 24.5843 29.28C23.3789 28.5227 22.4136 27.5093 21.6883 26.24C20.9736 24.96 20.6163 23.5467 20.6163 22C20.6163 20.8267 20.8243 19.7333 21.2403 18.72C21.6563 17.696 22.2269 16.8 22.9523 16.032C23.6883 15.2533 24.5416 14.6453 25.5123 14.208C26.4829 13.7707 27.5176 13.552 28.6163 13.552C29.8003 13.552 30.8883 13.7867 31.8803 14.256C32.8829 14.7253 33.7416 15.3813 34.4563 16.224C35.1816 17.0667 35.7256 18.0533 36.0883 19.184C36.4616 20.3147 36.6163 21.536 36.5522 22.848H22.9843C23.1123 23.8613 23.4323 24.768 23.9443 25.568C24.4669 26.368 25.1283 27.0027 25.9283 27.472C26.7389 27.9307 27.6349 28.1653 28.6163 28.176C29.6829 28.176 30.6429 27.8987 31.4963 27.344C32.3603 26.7893 33.0536 26.0267 33.5763 25.056L35.8483 25.584C35.2083 27.0027 34.2429 28.1653 32.9523 29.072C31.6616 29.968 30.2163 30.416 28.6163 30.416ZM22.9203 21.04H34.2963C34.2216 20.048 33.9176 19.1413 33.3843 18.32C32.8616 17.488 32.1843 16.8267 31.3523 16.336C30.5203 15.8347 29.6083 15.584 28.6163 15.584C27.6243 15.584 26.7176 15.8293 25.8963 16.32C25.0749 16.8 24.4029 17.456 23.8802 18.288C23.3576 19.1093 23.0376 20.0267 22.9203 21.04ZM53.247 20.096V30H51.007V20.544C51.007 19.6693 50.7937 18.8747 50.367 18.16C49.9403 17.4453 49.3697 16.8747 48.655 16.448C47.9403 16.0213 47.1457 15.808 46.271 15.808C45.407 15.808 44.6123 16.0213 43.887 16.448C43.1723 16.8747 42.6017 17.4453 42.175 18.16C41.7483 18.8747 41.535 19.6693 41.535 20.544V30H39.295V14H41.535V16.208C42.1003 15.3973 42.8363 14.752 43.743 14.272C44.6497 13.792 45.6363 13.552 46.703 13.552C47.9083 13.552 49.007 13.8453 49.999 14.432C50.991 15.0187 51.7803 15.808 52.367 16.8C52.9537 17.792 53.247 18.8907 53.247 20.096ZM64.6273 16.24H60.8033L60.7873 30H58.5473L58.5633 16.24H55.6673V14H58.5633L58.5473 8.976H60.7873L60.8033 14H64.6273V16.24ZM67.3575 14H69.5975V30H67.3575V14ZM68.4935 11.2C68.1308 11.2 67.8215 11.0827 67.5655 10.848C67.3202 10.6027 67.1975 10.2987 67.1975 9.936C67.1975 9.57333 67.3202 9.27467 67.5655 9.04C67.8215 8.79467 68.1308 8.672 68.4935 8.672C68.8455 8.672 69.1442 8.79467 69.3895 9.04C69.6455 9.27467 69.7735 9.57333 69.7735 9.936C69.7735 10.2987 69.6508 10.6027 69.4055 10.848C69.1602 11.0827 68.8562 11.2 68.4935 11.2ZM80.335 30.416C78.863 30.416 77.519 30.0373 76.303 29.28C75.0977 28.5227 74.1323 27.5093 73.407 26.24C72.6923 24.96 72.335 23.5467 72.335 22C72.335 20.8267 72.543 19.7333 72.959 18.72C73.375 17.696 73.9457 16.8 74.671 16.032C75.407 15.2533 76.2603 14.6453 77.231 14.208C78.2017 13.7707 79.2363 13.552 80.335 13.552C81.519 13.552 82.607 13.7867 83.599 14.256C84.6017 14.7253 85.4603 15.3813 86.175 16.224C86.9003 17.0667 87.4443 18.0533 87.807 19.184C88.1803 20.3147 88.335 21.536 88.271 22.848H74.703C74.831 23.8613 75.151 24.768 75.663 25.568C76.1857 26.368 76.847 27.0027 77.647 27.472C78.4577 27.9307 79.3537 28.1653 80.335 28.176C81.4017 28.176 82.3617 27.8987 83.215 27.344C84.079 26.7893 84.7723 26.0267 85.295 25.056L87.567 25.584C86.927 27.0027 85.9617 28.1653 84.671 29.072C83.3803 29.968 81.935 30.416 80.335 30.416ZM74.639 21.04H86.015C85.9403 20.048 85.6363 19.1413 85.103 18.32C84.5803 17.488 83.903 16.8267 83.071 16.336C82.239 15.8347 81.327 15.584 80.335 15.584C79.343 15.584 78.4363 15.8293 77.615 16.32C76.7937 16.8 76.1217 17.456 75.599 18.288C75.0763 19.1093 74.7563 20.0267 74.639 21.04ZM104.966 20.096V30H102.726V20.544C102.726 19.6693 102.512 18.8747 102.086 18.16C101.659 17.4453 101.088 16.8747 100.374 16.448C99.6591 16.0213 98.8644 15.808 97.9898 15.808C97.1258 15.808 96.3311 16.0213 95.6058 16.448C94.8911 16.8747 94.3204 17.4453 93.8938 18.16C93.4671 18.8747 93.2538 19.6693 93.2538 20.544V30H91.0138V14H93.2538V16.208C93.8191 15.3973 94.5551 14.752 95.4618 14.272C96.3684 13.792 97.3551 13.552 98.4218 13.552C99.6271 13.552 100.726 13.8453 101.718 14.432C102.71 15.0187 103.499 15.808 104.086 16.8C104.672 17.792 104.966 18.8907 104.966 20.096ZM116.346 16.24H112.522L112.506 30H110.266L110.282 16.24H107.386V14H110.282L110.266 8.976H112.506L112.522 14H116.346V16.24ZM119.513 30.416C119.161 30.416 118.862 30.288 118.617 30.032C118.371 29.7867 118.249 29.4827 118.249 29.12C118.249 28.7787 118.371 28.4853 118.617 28.24C118.862 27.984 119.161 27.856 119.513 27.856C119.875 27.856 120.179 27.984 120.425 28.24C120.681 28.4853 120.809 28.7787 120.809 29.12C120.809 29.4827 120.681 29.7867 120.425 30.032C120.179 30.288 119.875 30.416 119.513 30.416ZM137.666 14H139.906V30H137.666L137.586 27.024C137.063 28.0373 136.332 28.8587 135.394 29.488C134.455 30.1067 133.335 30.416 132.034 30.416C130.86 30.416 129.762 30.1973 128.738 29.76C127.714 29.312 126.812 28.6987 126.034 27.92C125.255 27.1413 124.647 26.24 124.21 25.216C123.772 24.192 123.554 23.0933 123.554 21.92C123.554 20.768 123.767 19.6853 124.194 18.672C124.631 17.6587 125.228 16.768 125.986 16C126.754 15.232 127.639 14.6347 128.642 14.208C129.655 13.7707 130.738 13.552 131.89 13.552C133.223 13.552 134.386 13.872 135.378 14.512C136.37 15.1413 137.159 15.968 137.746 16.992L137.666 14ZM131.986 28.24C133.127 28.24 134.108 27.9627 134.93 27.408C135.751 26.8427 136.38 26.0853 136.818 25.136C137.266 24.1867 137.49 23.1413 137.49 22C137.49 20.8267 137.266 19.7707 136.818 18.832C136.37 17.8827 135.735 17.1307 134.914 16.576C134.092 16.0213 133.116 15.744 131.986 15.744C130.855 15.744 129.82 16.0267 128.882 16.592C127.954 17.1467 127.212 17.8987 126.658 18.848C126.114 19.7973 125.842 20.848 125.842 22C125.842 23.1627 126.124 24.2187 126.69 25.168C127.255 26.1067 128.002 26.8533 128.93 27.408C129.868 27.9627 130.887 28.24 131.986 28.24ZM143.108 14H145.348V30H143.108V14ZM144.244 11.2C143.881 11.2 143.572 11.0827 143.316 10.848C143.07 10.6027 142.948 10.2987 142.948 9.936C142.948 9.57333 143.07 9.27467 143.316 9.04C143.572 8.79467 143.881 8.672 144.244 8.672C144.596 8.672 144.894 8.79467 145.14 9.04C145.396 9.27467 145.524 9.57333 145.524 9.936C145.524 10.2987 145.401 10.6027 145.156 10.848C144.91 11.0827 144.606 11.2 144.244 11.2Z" fill="#1E1E1E"/>
<rect width="21.809" height="5.92587" rx="2.96293" transform="matrix(0.634705 0.772754 -0.759225 0.650829 159.158 8)" fill="#FF8AFA"/>
<path d="M158.574 30C156.952 30 155.638 28.6853 155.638 27.0634V11.9366C155.638 10.3147 156.952 9 158.574 9C160.196 9 161.511 10.3147 161.511 11.9366V27.0634C161.511 28.6853 160.196 30 158.574 30Z" fill="#6A70FF"/>
</svg>
